<?xml version="1.0" encoding="UTF-8" standalone="no"?>
<svg
   viewBox="0 0 48 48"
   version="1.1"
   id="svg8"
   sodipodi:docname="MVGO.svg"
   inkscape:version="1.1 (c68e22c387, 2021-05-23)"
   xmlns:inkscape="http://www.inkscape.org/namespaces/inkscape"
   xmlns:sodipodi="http://sodipodi.sourceforge.net/DTD/sodipodi-0.dtd"
   xmlns="http://www.w3.org/2000/svg"
   xmlns:svg="http://www.w3.org/2000/svg">
  <sodipodi:namedview
     id="namedview10"
     pagecolor="#505050"
     bordercolor="#eeeeee"
     borderopacity="1"
     inkscape:pageshadow="0"
     inkscape:pageopacity="0"
     inkscape:pagecheckerboard="0"
     showgrid="false"
     inkscape:zoom="12.256518"
     inkscape:cx="18.194401"
     inkscape:cy="26.924451"
     inkscape:window-width="1920"
     inkscape:window-height="1018"
     inkscape:window-x="-6"
     inkscape:window-y="-6"
     inkscape:window-maximized="1"
     inkscape:current-layer="svg8"
     inkscape:snap-intersection-paths="false"
     inkscape:object-paths="true"
     inkscape:snap-bbox="false"
     inkscape:snap-smooth-nodes="true"
     inkscape:object-nodes="false" />
  <defs
     id="defs4">
    <style
       id="style2">.a{fill:none;stroke:#fff;stroke-linecap:round;stroke-linejoin:round;}</style>
  </defs>
  <path
     class="a"
     d="M40.5,5.5H7.5a2,2,0,0,0-2,2v33a2,2,0,0,0,2,2h33a2,2,0,0,0,2-2V7.5A2,2,0,0,0,40.5,5.5Z"
     id="path6" />
  <path
     style="fill:none;stroke:#ffffff;stroke-width:0.915693;stroke-miterlimit:4;stroke-dasharray:none;stroke-opacity:0.992157"
     id="path868"
     sodipodi:type="arc"
     sodipodi:cx="16.061869"
     sodipodi:cy="24.000168"
     sodipodi:rx="7.9385061"
     sodipodi:ry="7.9385061"
     sodipodi:start="0"
     sodipodi:end="5.8855536"
     sodipodi:open="true"
     sodipodi:arc-type="arc"
     d="m 24.000375,24.000168 a 7.9385061,7.9385061 0 0 1 -7.150655,7.899314 7.9385061,7.9385061 0 0 1 -8.569978,-6.331391 7.9385061,7.9385061 0 0 1 5.449612,-9.156023 7.9385061,7.9385061 0 0 1 9.651664,4.514025" />
  <circle
     style="fill:none;stroke:#ffffff;stroke-width:1;stroke-miterlimit:4;stroke-dasharray:none;stroke-opacity:0.992157"
     id="path868-2"
     cx="31.938883"
     cy="24.000031"
     r="7.9385061" />
  <path
     style="fill:none;stroke:#ffffff;stroke-width:1;stroke-linecap:round;stroke-linejoin:round;stroke-miterlimit:4;stroke-dasharray:none;stroke-opacity:1"
     d="M 24.000373,24.000167 H 17.384952"
     id="path1604" />
</svg>
